<svg xmlns="http://www.w3.org/2000/svg" viewBox="0 0 64 64">
  <rect width="64" height="64" rx="14" fill="#111315"/>
  <path d="M18 10 H24 A6 6 0 0 1 30 16 V26 A4 4 0 0 1 26 30 H16 A6 6 0 0 1 10 24 V18 A8 8 0 0 1 18 10 Z" fill="#B8FF2C"/>
  <path d="M40 10 H46 A8 8 0 0 1 54 18 V24 A6 6 0 0 1 48 30 H38 A4 4 0 0 1 34 26 V16 A6 6 0 0 1 40 10 Z" fill="#8A93A0"/>
  <path d="M16 34 H26 A4 4 0 0 1 30 38 V48 A6 6 0 0 1 24 54 H18 A8 8 0 0 1 10 46 V40 A6 6 0 0 1 16 34 Z" fill="#8A93A0"/>
  <path d="M38 34 H48 A6 6 0 0 1 54 40 V46 A8 8 0 0 1 46 54 H40 A6 6 0 0 1 34 48 V38 A4 4 0 0 1 38 34 Z" fill="#8A93A0"/>
</svg>
